<svg class="diagram-root" style="background: #f5f6f6" xmlns="http://www.w3.org/2000/svg" xmlns:xlink="http://www.w3.org/1999/xlink"><style>.diagram-root { font-family: "Helvetica Neue", sans-serif; font-size: 12px; } .t { overflow: visible; } .t-bg { y: 40; fill: #fff;   } .th { fill: #005aa0;   } .tht { fill: #fff; font-size: 14px;  } .tf { fill: #323c46; overflow: visible; } .tf.pk { fill: #005aa0; font-weight: bold; } .tf.fk { font-weight: bold; } .ty { fill: #adb1b5; font-weight: normal; text-anchor: end; } .r { fill: transparent; stroke: #c3c3c3; stroke-width: 1; } .l { stroke: 1; } .i { fill: #c2c7ce; stroke: #c2c7ce; } .i.ix { fill: #afb3b6; stroke: #000; } .fa { fill: transparent; overflow: visible; } .fa .bg.hover { fill: #f7f7f7; } .c { cy: 12; r: 4; stroke: #d2d2dc; fill: #d2d2dc; } .hr { fill: transparent; stroke: #323c46; stroke-opacity: 0.035; stroke-width: 13; } .dc { stroke: #fa5a3c; fill: #fa5a3c; } .x { stroke: white; stroke-width: 1; } .hl .th { fill: #1b9bff; } .hl .tht {  } .fhl .bg { fill: #e7f4ff; } .fhls .bg {  } .r.hl { stroke: #1b9bff; } .dim { opacity: 0.25; }</style><g class="drawing-wrapper" transform="translate(208.5, 6.5) scale(1,1)"><g class="rs"><path d="M -21.1 530.5 m -1, 0 a 1,1 0 1,0 2,0 a 1,1 0 1,0 -2,0 M -21.1 530.5 m -0.5, 0 a 0.5,0.5 0 1,0 1,0 a 0.5,0.5 0 1,0 -1,0  M-21.1 530.5 L-21.1 530.5 -9.100000000000001 530.5 M -21.1 536.5 m -1, 0 a 1,1 0 1,0 2,0 a 1,1 0 1,0 -2,0 M -21.1 536.5 m -0.5, 0 a 0.5,0.5 0 1,0 1,0 a 0.5,0.5 0 1,0 -1,0  M-21.1 536.5 L-21.1 536.5 -14.100000000000001 530.5 -21.1 524.5 M -21.1 524.5 m -1, 0 a 1,1 0 1,0 2,0 a 1,1 0 1,0 -2,0 M -21.1 524.5 m -0.5, 0 a 0.5,0.5 0 1,0 1,0 a 0.5,0.5 0 1,0 -1,0  M-9.100000000000001 530.5 Q 135.67 530.5, 280.45 429.75 T 570 329 M 582 329 m -1, 0 a 1,1 0 1,0 2,0 a 1,1 0 1,0 -2,0 M 582 329 m -0.5, 0 a 0.5,0.5 0 1,0 1,0 a 0.5,0.5 0 1,0 -1,0  M582 329 L582 329 570 329 M576 335 L576 335 576 323" id="h32278643" class="r"></path><path d="M -21.1 555.5 m -1, 0 a 1,1 0 1,0 2,0 a 1,1 0 1,0 -2,0 M -21.1 555.5 m -0.5, 0 a 0.5,0.5 0 1,0 1,0 a 0.5,0.5 0 1,0 -1,0  M-21.1 555.5 L-21.1 555.5 -9.100000000000001 555.5 M -21.1 561.5 m -1, 0 a 1,1 0 1,0 2,0 a 1,1 0 1,0 -2,0 M -21.1 561.5 m -0.5, 0 a 0.5,0.5 0 1,0 1,0 a 0.5,0.5 0 1,0 -1,0  M-21.1 561.5 L-21.1 561.5 -14.100000000000001 555.5 -21.1 549.5 M -21.1 549.5 m -1, 0 a 1,1 0 1,0 2,0 a 1,1 0 1,0 -2,0 M -21.1 549.5 m -0.5, 0 a 0.5,0.5 0 1,0 1,0 a 0.5,0.5 0 1,0 -1,0  M-9.100000000000001 555.5 Q 135.67 555.5, 280.45 454.75 T 570 354 M 582 354 m -1, 0 a 1,1 0 1,0 2,0 a 1,1 0 1,0 -2,0 M 582 354 m -0.5, 0 a 0.5,0.5 0 1,0 1,0 a 0.5,0.5 0 1,0 -1,0  M582 354 L582 354 570 354 M576 360 L576 360 576 348" id="h2299142039" class="r"></path><path d="M 582 304 m -1, 0 a 1,1 0 1,0 2,0 a 1,1 0 1,0 -2,0 M 582 304 m -0.5, 0 a 0.5,0.5 0 1,0 1,0 a 0.5,0.5 0 1,0 -1,0  M582 304 L582 304 570 304 M 582 310 m -1, 0 a 1,1 0 1,0 2,0 a 1,1 0 1,0 -2,0 M 582 310 m -0.5, 0 a 0.5,0.5 0 1,0 1,0 a 0.5,0.5 0 1,0 -1,0  M582 310 L582 310 575 304 582 298 M 582 298 m -1, 0 a 1,1 0 1,0 2,0 a 1,1 0 1,0 -2,0 M 582 298 m -0.5, 0 a 0.5,0.5 0 1,0 1,0 a 0.5,0.5 0 1,0 -1,0  M570 304 Q 425.23 304, 280.45 192.25 T -9.100000000000001 80.5 M -21.1 80.5 m -1, 0 a 1,1 0 1,0 2,0 a 1,1 0 1,0 -2,0 M -21.1 80.5 m -0.5, 0 a 0.5,0.5 0 1,0 1,0 a 0.5,0.5 0 1,0 -1,0  M-21.1 80.5 L-21.1 80.5 -9.100000000000001 80.5 M-15.100000000000001 86.5 L-15.100000000000001 86.5 -15.100000000000001 74.5" id="h4111444278" class="r"></path></g><g class="hrs"></g><g class="ts"><svg width="165.4" height="625" x="-186.5" y="23.5" id="h2720382072" class="t"><rect height="40" width="165.4" class="th"></rect><text x="13" y="25" class="tht">covid</text><rect height="585" width="165.4" class="t-bg"></rect><text x="13" y="61" class="tf pk">state<tspan x="152.4" class="ty">varchar</tspan></text><path d="M7,14A2,2 0 0,1 5,12A2,2 0 0,1 7,10A2,2 0 0,1 9,12A2,2 0 0,1 7,14M12.65,10C11.83,7.67 9.61,6 7, 6A6, 6 0 0, 0 1, 12A6, 6 0 0, 0 7, 18C9.61, 18 11.83, 16.33 12.65, 14H17V18H21V14H23V10H12.65Z" class="i pk" transform="translate(92.386328125, 48) scale(0.65)"></path><text x="13" y="86" class="tf">country_region<tspan x="152.4" class="ty">varchar</tspan></text><text x="13" y="111" class="tf">last_update<tspan x="152.4" class="ty">int</tspan></text><text x="13" y="136" class="tf">lat<tspan x="152.4" class="ty">int</tspan></text><text x="13" y="161" class="tf">long<tspan x="152.4" class="ty">int</tspan></text><text x="13" y="186" class="tf">confirmed<tspan x="152.4" class="ty">int</tspan></text><text x="13" y="211" class="tf">deaths<tspan x="152.4" class="ty">int</tspan></text><text x="13" y="236" class="tf">Recovered<tspan x="152.4" class="ty">int</tspan></text><text x="13" y="261" class="tf">Active<tspan x="152.4" class="ty">int</tspan></text><text x="13" y="286" class="tf">FIPS<tspan x="152.4" class="ty">int</tspan></text><text x="13" y="311" class="tf">incident_Rate<tspan x="152.4" class="ty">int</tspan></text><text x="13" y="336" class="tf">people_tested<tspan x="152.4" class="ty">int</tspan></text><text x="13" y="361" class="tf">people_hospitalized<tspan x="152.4" class="ty">int</tspan></text><text x="13" y="386" class="tf">Mortality_rate<tspan x="152.4" class="ty">int</tspan></text><text x="13" y="411" class="tf">UID<tspan x="152.4" class="ty">int</tspan></text><text x="13" y="436" class="tf">1S03<tspan x="152.4" class="ty">varchar</tspan></text><text x="13" y="461" class="tf">Testing_Rate<tspan x="152.4" class="ty">int</tspan></text><text x="13" y="486" class="tf">hopitalization_rate<tspan x="152.4" class="ty">int</tspan></text><text x="13" y="511" class="tf fk">Telemed_2019<tspan x="152.4" class="ty">int</tspan></text><text x="13" y="536" class="tf fk">Telemed_2020<tspan x="152.4" class="ty">int</tspan></text><text x="13" y="561" class="tf">code<tspan x="152.4" class="ty">varcha</tspan></text><text x="13" y="586" class="tf">covid_level<tspan x="152.4" class="ty">varchar</tspan></text><text x="13" y="611" class="tf">text<tspan x="152.4" class="ty">VARCHAR</tspan></text></svg><svg width="190.05" height="150" x="582" y="222" id="h3161597387" class="t"><rect height="40" width="190.05" class="th"></rect><text x="13" y="25" class="tht">telemedicine</text><rect height="110" width="190.05" class="t-bg"></rect><text x="13" y="61" class="tf">id<tspan x="177.05" class="ty">INT</tspan></text><text x="13" y="86" class="tf fk">state<tspan x="177.05" class="ty">varchar</tspan></text><text x="13" y="111" class="tf pk">Telemedicine_2019<tspan x="177.05" class="ty">INT</tspan></text><path d="M7,14A2,2 0 0,1 5,12A2,2 0 0,1 7,10A2,2 0 0,1 9,12A2,2 0 0,1 7,14M12.65,10C11.83,7.67 9.61,6 7, 6A6, 6 0 0, 0 1, 12A6, 6 0 0, 0 7, 18C9.61, 18 11.83, 16.33 12.65, 14H17V18H21V14H23V10H12.65Z" class="i pk" transform="translate(137.719921875, 98) scale(0.65)"></path><text x="13" y="136" class="tf pk">Telemedicine_covid<tspan x="177.05" class="ty">INT</tspan></text><path d="M7,14A2,2 0 0,1 5,12A2,2 0 0,1 7,10A2,2 0 0,1 9,12A2,2 0 0,1 7,14M12.65,10C11.83,7.67 9.61,6 7, 6A6, 6 0 0, 0 1, 12A6, 6 0 0, 0 7, 18C9.61, 18 11.83, 16.33 12.65, 14H17V18H21V14H23V10H12.65Z" class="i pk" transform="translate(137.719921875, 123) scale(0.65)"></path></svg></g></g></svg>